# xmcd
#
# Track frame offsets:
#	150
#	11574
#	37517
#	59857
#	78337
#	89277
#	107918
#	129183
#	148536
#	167848
#	191569
#	212441
#	237237
#
# Disc length: 3624 seconds
#
# Revision: 1
# Processed by: cddbd v1.5.1PL0 Copyright (c) Steve Scherf et al.
# Submitted via: audiograbber 1.81.03
#
DISCID=a50e260d
DTITLE=John Lee Hooker Jr. - Blues With A Vengeance
DYEAR=1900
DGENRE=Country
TTITLE0=Save The Last Dance For Me -- The Drifters
TTITLE1=Suspicious
TTITLE2=Check Yourself
TTITLE3=Blues Ain't Nothin But A Pimp
TTITLE4=Dimples
TTITLE5=She Wasn't Nothin' But A Devil
TTITLE6=Boom Boom
TTITLE7=I'm Leavin'
TTITLE8=Keep It Real
TTITLE9=I'm Leavin'
TTITLE10=Stormy Monday
TTITLE11=Groove Thang
TTITLE12=One Bourbon, One Scotch, One Beer
EXTD=
EXTT0=
EXTT1=
EXTT2=
EXTT3=
EXTT4=
EXTT5=
EXTT6=
EXTT7=
EXTT8=
EXTT9=
EXTT10=
EXTT11=
EXTT12=
PLAYORDER=
